<mxfile host="app.diagrams.net" modified="2024-05-18T00:39:41.024Z" agent="Mozilla/5.0 (Windows NT 10.0; Win64; x64) AppleWebKit/537.36 (KHTML, like Gecko) Chrome/124.0.0.0 Safari/537.36" etag="EA5V8OznprS1OAtGn_S7" version="24.4.4" type="device">
  <diagram name="Page-1" id="bX7X_Sz5MCf3tnxjytRK">
    <mxGraphModel dx="2759" dy="1027" grid="1" gridSize="10" guides="1" tooltips="1" connect="1" arrows="1" fold="1" page="1" pageScale="1" pageWidth="850" pageHeight="1100" math="0" shadow="0">
      <root>
        <mxCell id="0" />
        <mxCell id="1" parent="0" />
        <mxCell id="2JFF53GtZAPgRNFm6zvI-1" value="" style="rounded=0;whiteSpace=wrap;html=1;fillColor=none;" vertex="1" parent="1">
          <mxGeometry x="-40" y="120" width="1910" height="870" as="geometry" />
        </mxCell>
        <mxCell id="2JFF53GtZAPgRNFm6zvI-28" value="&lt;font face=&quot;Helvetica&quot; style=&quot;font-size: 35px;&quot;&gt;&lt;b&gt;&lt;font style=&quot;font-size: 35px;&quot;&gt;Coordenador - Listar Formulários Recebidos&lt;/font&gt;&lt;/b&gt;&lt;/font&gt;" style="text;html=1;align=center;verticalAlign=middle;whiteSpace=wrap;rounded=0;" vertex="1" parent="1">
          <mxGeometry x="-40" y="158" width="1910" height="30" as="geometry" />
        </mxCell>
        <mxCell id="2JFF53GtZAPgRNFm6zvI-162" value="" style="ellipse;html=1;shape=endState;fillColor=#000000;strokeColor=#000000;" vertex="1" parent="1">
          <mxGeometry x="1755" y="620" width="30" height="30" as="geometry" />
        </mxCell>
        <mxCell id="2JFF53GtZAPgRNFm6zvI-163" style="edgeStyle=orthogonalEdgeStyle;rounded=0;orthogonalLoop=1;jettySize=auto;html=1;exitX=1;exitY=0.5;exitDx=0;exitDy=0;exitPerimeter=0;entryX=0;entryY=0.5;entryDx=0;entryDy=0;" edge="1" parent="1" source="2JFF53GtZAPgRNFm6zvI-164" target="2JFF53GtZAPgRNFm6zvI-166">
          <mxGeometry relative="1" as="geometry" />
        </mxCell>
        <mxCell id="2JFF53GtZAPgRNFm6zvI-164" value="" style="verticalLabelPosition=bottom;verticalAlign=top;html=1;shape=mxgraph.flowchart.on-page_reference;fillColor=#000000;" vertex="1" parent="1">
          <mxGeometry x="-10" y="325" width="30" height="30" as="geometry" />
        </mxCell>
        <mxCell id="2JFF53GtZAPgRNFm6zvI-165" style="edgeStyle=orthogonalEdgeStyle;rounded=0;orthogonalLoop=1;jettySize=auto;html=1;exitX=1;exitY=0.5;exitDx=0;exitDy=0;entryX=0;entryY=0.5;entryDx=0;entryDy=0;" edge="1" parent="1" source="2JFF53GtZAPgRNFm6zvI-166" target="2JFF53GtZAPgRNFm6zvI-192">
          <mxGeometry relative="1" as="geometry" />
        </mxCell>
        <mxCell id="2JFF53GtZAPgRNFm6zvI-166" value="Coordenador - Acessa página do histórico dos formulários recebidos" style="rounded=1;whiteSpace=wrap;html=1;fillColor=#CCE5FF;" vertex="1" parent="1">
          <mxGeometry x="70" y="310" width="130" height="60" as="geometry" />
        </mxCell>
        <mxCell id="2JFF53GtZAPgRNFm6zvI-167" style="edgeStyle=orthogonalEdgeStyle;rounded=0;orthogonalLoop=1;jettySize=auto;html=1;exitX=0.5;exitY=1;exitDx=0;exitDy=0;entryX=0;entryY=0.5;entryDx=0;entryDy=0;" edge="1" parent="1" source="2JFF53GtZAPgRNFm6zvI-171" target="2JFF53GtZAPgRNFm6zvI-215">
          <mxGeometry relative="1" as="geometry" />
        </mxCell>
        <mxCell id="2JFF53GtZAPgRNFm6zvI-168" value="Coordenador deseja &lt;br&gt;filtrar os formulários" style="edgeLabel;html=1;align=center;verticalAlign=middle;resizable=0;points=[];" vertex="1" connectable="0" parent="2JFF53GtZAPgRNFm6zvI-167">
          <mxGeometry x="-0.1171" relative="1" as="geometry">
            <mxPoint as="offset" />
          </mxGeometry>
        </mxCell>
        <mxCell id="2JFF53GtZAPgRNFm6zvI-169" style="edgeStyle=orthogonalEdgeStyle;rounded=0;orthogonalLoop=1;jettySize=auto;html=1;exitX=1;exitY=0.5;exitDx=0;exitDy=0;entryX=0;entryY=0.5;entryDx=0;entryDy=0;" edge="1" parent="1" source="2JFF53GtZAPgRNFm6zvI-171" target="2JFF53GtZAPgRNFm6zvI-175">
          <mxGeometry relative="1" as="geometry">
            <Array as="points" />
          </mxGeometry>
        </mxCell>
        <mxCell id="2JFF53GtZAPgRNFm6zvI-170" value="Coordenador não deseja&lt;br&gt;filtrar os formulários" style="edgeLabel;html=1;align=center;verticalAlign=middle;resizable=0;points=[];" vertex="1" connectable="0" parent="2JFF53GtZAPgRNFm6zvI-169">
          <mxGeometry x="-0.3668" y="-3" relative="1" as="geometry">
            <mxPoint x="85" y="-3" as="offset" />
          </mxGeometry>
        </mxCell>
        <mxCell id="2JFF53GtZAPgRNFm6zvI-171" value="" style="rhombus;whiteSpace=wrap;html=1;" vertex="1" parent="1">
          <mxGeometry x="890" y="320" width="35" height="40" as="geometry" />
        </mxCell>
        <mxCell id="2JFF53GtZAPgRNFm6zvI-172" style="edgeStyle=orthogonalEdgeStyle;rounded=0;orthogonalLoop=1;jettySize=auto;html=1;exitX=1;exitY=0.5;exitDx=0;exitDy=0;entryX=0;entryY=0.5;entryDx=0;entryDy=0;" edge="1" parent="1" source="2JFF53GtZAPgRNFm6zvI-173" target="2JFF53GtZAPgRNFm6zvI-171">
          <mxGeometry relative="1" as="geometry" />
        </mxCell>
        <mxCell id="2JFF53GtZAPgRNFm6zvI-173" value="Sistema - Exibe os formulários recebidos pelo coordenador" style="rounded=1;whiteSpace=wrap;html=1;fillColor=#CCE5FF;" vertex="1" parent="1">
          <mxGeometry x="700" y="310" width="120" height="60" as="geometry" />
        </mxCell>
        <mxCell id="2JFF53GtZAPgRNFm6zvI-174" style="edgeStyle=orthogonalEdgeStyle;rounded=0;orthogonalLoop=1;jettySize=auto;html=1;exitX=1;exitY=0.5;exitDx=0;exitDy=0;entryX=0;entryY=0.5;entryDx=0;entryDy=0;" edge="1" parent="1" source="2JFF53GtZAPgRNFm6zvI-175" target="2JFF53GtZAPgRNFm6zvI-211">
          <mxGeometry relative="1" as="geometry" />
        </mxCell>
        <mxCell id="2JFF53GtZAPgRNFm6zvI-175" value="Coordenador - Solicita a visualização de um formulário específico" style="rounded=1;whiteSpace=wrap;html=1;fillColor=#CCE5FF;" vertex="1" parent="1">
          <mxGeometry x="1310" y="310" width="130" height="60" as="geometry" />
        </mxCell>
        <mxCell id="2JFF53GtZAPgRNFm6zvI-176" style="edgeStyle=orthogonalEdgeStyle;rounded=0;orthogonalLoop=1;jettySize=auto;html=1;exitX=0.5;exitY=1;exitDx=0;exitDy=0;entryX=0;entryY=0.75;entryDx=0;entryDy=0;" edge="1" parent="1" source="2JFF53GtZAPgRNFm6zvI-177" target="2JFF53GtZAPgRNFm6zvI-219">
          <mxGeometry relative="1" as="geometry" />
        </mxCell>
        <mxCell id="2JFF53GtZAPgRNFm6zvI-177" value="Coordenador - Informa data dos formulários para filtro" style="rounded=1;whiteSpace=wrap;html=1;fillColor=#CCE5FF;arcSize=15;" vertex="1" parent="1">
          <mxGeometry x="687" y="510" width="130" height="60" as="geometry" />
        </mxCell>
        <mxCell id="2JFF53GtZAPgRNFm6zvI-178" style="edgeStyle=orthogonalEdgeStyle;rounded=0;orthogonalLoop=1;jettySize=auto;html=1;exitX=0.5;exitY=1;exitDx=0;exitDy=0;entryX=0;entryY=0.5;entryDx=0;entryDy=0;" edge="1" parent="1" source="2JFF53GtZAPgRNFm6zvI-179" target="2JFF53GtZAPgRNFm6zvI-219">
          <mxGeometry relative="1" as="geometry" />
        </mxCell>
        <mxCell id="2JFF53GtZAPgRNFm6zvI-179" value="Coordenador - Informa tipo dos formulários para filtro" style="rounded=1;whiteSpace=wrap;html=1;fillColor=#CCE5FF;arcSize=15;" vertex="1" parent="1">
          <mxGeometry x="843.75" y="510" width="127.5" height="60" as="geometry" />
        </mxCell>
        <mxCell id="2JFF53GtZAPgRNFm6zvI-180" style="edgeStyle=orthogonalEdgeStyle;rounded=0;orthogonalLoop=1;jettySize=auto;html=1;exitX=0.5;exitY=0;exitDx=0;exitDy=0;entryX=0.5;entryY=1;entryDx=0;entryDy=0;" edge="1" parent="1" source="2JFF53GtZAPgRNFm6zvI-181" target="2JFF53GtZAPgRNFm6zvI-175">
          <mxGeometry relative="1" as="geometry" />
        </mxCell>
        <mxCell id="2JFF53GtZAPgRNFm6zvI-181" value="Sistema - Exibe formulários que atendem aos filtros" style="rounded=1;whiteSpace=wrap;html=1;fillColor=#CCE5FF;" vertex="1" parent="1">
          <mxGeometry x="1315" y="680" width="120" height="60" as="geometry" />
        </mxCell>
        <mxCell id="2JFF53GtZAPgRNFm6zvI-182" style="edgeStyle=orthogonalEdgeStyle;rounded=0;orthogonalLoop=1;jettySize=auto;html=1;exitX=1;exitY=0.5;exitDx=0;exitDy=0;entryX=0;entryY=0.5;entryDx=0;entryDy=0;" edge="1" parent="1" source="2JFF53GtZAPgRNFm6zvI-187" target="2JFF53GtZAPgRNFm6zvI-204">
          <mxGeometry relative="1" as="geometry" />
        </mxCell>
        <mxCell id="2JFF53GtZAPgRNFm6zvI-183" value="Há formulários nos &lt;br&gt;parâmetros fornecidos" style="edgeLabel;html=1;align=center;verticalAlign=middle;resizable=0;points=[];" vertex="1" connectable="0" parent="2JFF53GtZAPgRNFm6zvI-182">
          <mxGeometry x="-0.4399" relative="1" as="geometry">
            <mxPoint x="36" as="offset" />
          </mxGeometry>
        </mxCell>
        <mxCell id="2JFF53GtZAPgRNFm6zvI-184" style="edgeStyle=orthogonalEdgeStyle;rounded=0;orthogonalLoop=1;jettySize=auto;html=1;exitX=0.5;exitY=1;exitDx=0;exitDy=0;entryX=0.5;entryY=0;entryDx=0;entryDy=0;" edge="1" parent="1" source="2JFF53GtZAPgRNFm6zvI-187" target="2JFF53GtZAPgRNFm6zvI-206">
          <mxGeometry relative="1" as="geometry" />
        </mxCell>
        <mxCell id="2JFF53GtZAPgRNFm6zvI-185" value="&lt;span style=&quot;color: rgba(0, 0, 0, 0); font-family: monospace; font-size: 0px; text-align: start; background-color: rgb(251, 251, 251);&quot;&gt;%3CmxGraphModel%3E%3Croot%3E%3CmxCell%20id%3D%220%22%2F%3E%3CmxCell%20id%3D%221%22%20parent%3D%220%22%2F%3E%3CmxCell%20id%3D%222%22%20value%3D%22H%C3%A1%20formul%C3%A1rios%20nos%20%26lt%3Bbr%26gt%3Bpar%C3%A2metros%20fornecidos%22%20style%3D%22edgeLabel%3Bhtml%3D1%3Balign%3Dcenter%3BverticalAlign%3Dmiddle%3Bresizable%3D0%3Bpoints%3D%5B%5D%3B%22%20vertex%3D%221%22%20connectable%3D%220%22%20parent%3D%221%22%3E%3CmxGeometry%20x%3D%221209.5714285714284%22%20y%3D%22770%22%20as%3D%22geometry%22%2F%3E%3C%2FmxCell%3E%3C%2Froot%3E%3C%2FmxGraphModel%3E&lt;/span&gt;&lt;span style=&quot;color: rgba(0, 0, 0, 0); font-family: monospace; font-size: 0px; text-align: start; background-color: rgb(251, 251, 251);&quot;&gt;%3CmxGraphModel%3E%3Croot%3E%3CmxCell%20id%3D%220%22%2F%3E%3CmxCell%20id%3D%221%22%20parent%3D%220%22%2F%3E%3CmxCell%20id%3D%222%22%20value%3D%22H%C3%A1%20formul%C3%A1rios%20nos%20%26lt%3Bbr%26gt%3Bpar%C3%A2metros%20fornecidos%22%20style%3D%22edgeLabel%3Bhtml%3D1%3Balign%3Dcenter%3BverticalAlign%3Dmiddle%3Bresizable%3D0%3Bpoints%3D%5B%5D%3B%22%20vertex%3D%221%22%20connectable%3D%220%22%20parent%3D%221%22%3E%3CmxGeometry%20x%3D%221209.5714285714284%22%20y%3D%22770%22%20as%3D%22geometry%22%2F%3E%3C%2FmxCell%3E%3C%2Froot%3E%3C%2FmxGraphModel%3E&lt;/span&gt;" style="edgeLabel;html=1;align=center;verticalAlign=middle;resizable=0;points=[];" vertex="1" connectable="0" parent="2JFF53GtZAPgRNFm6zvI-184">
          <mxGeometry x="-0.2202" relative="1" as="geometry">
            <mxPoint as="offset" />
          </mxGeometry>
        </mxCell>
        <mxCell id="2JFF53GtZAPgRNFm6zvI-186" value="Não há formulários &lt;br&gt;nos parâmetros fornecidos" style="edgeLabel;html=1;align=center;verticalAlign=middle;resizable=0;points=[];" vertex="1" connectable="0" parent="2JFF53GtZAPgRNFm6zvI-184">
          <mxGeometry x="-0.0633" y="1" relative="1" as="geometry">
            <mxPoint as="offset" />
          </mxGeometry>
        </mxCell>
        <mxCell id="2JFF53GtZAPgRNFm6zvI-187" value="" style="rhombus;whiteSpace=wrap;html=1;" vertex="1" parent="1">
          <mxGeometry x="890" y="690" width="35" height="40" as="geometry" />
        </mxCell>
        <mxCell id="2JFF53GtZAPgRNFm6zvI-188" style="edgeStyle=orthogonalEdgeStyle;rounded=0;orthogonalLoop=1;jettySize=auto;html=1;exitX=1;exitY=0.5;exitDx=0;exitDy=0;entryX=0;entryY=0.5;entryDx=0;entryDy=0;" edge="1" parent="1" source="2JFF53GtZAPgRNFm6zvI-192" target="2JFF53GtZAPgRNFm6zvI-199">
          <mxGeometry relative="1" as="geometry" />
        </mxCell>
        <mxCell id="2JFF53GtZAPgRNFm6zvI-189" value="Possui formulários recebidos" style="edgeLabel;html=1;align=center;verticalAlign=middle;resizable=0;points=[];" vertex="1" connectable="0" parent="2JFF53GtZAPgRNFm6zvI-188">
          <mxGeometry x="-0.3508" y="3" relative="1" as="geometry">
            <mxPoint x="31" y="3" as="offset" />
          </mxGeometry>
        </mxCell>
        <mxCell id="2JFF53GtZAPgRNFm6zvI-192" value="" style="rhombus;whiteSpace=wrap;html=1;" vertex="1" parent="1">
          <mxGeometry x="250" y="320" width="35" height="40" as="geometry" />
        </mxCell>
        <mxCell id="2JFF53GtZAPgRNFm6zvI-193" style="edgeStyle=orthogonalEdgeStyle;rounded=0;orthogonalLoop=1;jettySize=auto;html=1;exitX=0.5;exitY=1;exitDx=0;exitDy=0;entryX=0.5;entryY=1;entryDx=0;entryDy=0;" edge="1" parent="1" source="2JFF53GtZAPgRNFm6zvI-194" target="2JFF53GtZAPgRNFm6zvI-162">
          <mxGeometry relative="1" as="geometry">
            <Array as="points">
              <mxPoint x="268" y="950" />
              <mxPoint x="1770" y="950" />
            </Array>
          </mxGeometry>
        </mxCell>
        <mxCell id="2JFF53GtZAPgRNFm6zvI-194" value="Sistema - Exibe a mensagem: &lt;br&gt;&quot;Nenhum Resultado.&quot;" style="rounded=1;whiteSpace=wrap;html=1;fillColor=#CCE5FF;" vertex="1" parent="1">
          <mxGeometry x="207.5" y="460" width="120" height="60" as="geometry" />
        </mxCell>
        <mxCell id="2JFF53GtZAPgRNFm6zvI-195" style="edgeStyle=orthogonalEdgeStyle;rounded=0;orthogonalLoop=1;jettySize=auto;html=1;exitX=1;exitY=0.5;exitDx=0;exitDy=0;entryX=0;entryY=0.5;entryDx=0;entryDy=0;" edge="1" parent="1" source="2JFF53GtZAPgRNFm6zvI-199" target="2JFF53GtZAPgRNFm6zvI-173">
          <mxGeometry relative="1" as="geometry" />
        </mxCell>
        <mxCell id="2JFF53GtZAPgRNFm6zvI-196" value="Lista de formulários &lt;br&gt;gerada com sucesso" style="edgeLabel;html=1;align=center;verticalAlign=middle;resizable=0;points=[];" vertex="1" connectable="0" parent="2JFF53GtZAPgRNFm6zvI-195">
          <mxGeometry x="-0.1469" y="2" relative="1" as="geometry">
            <mxPoint x="12" y="2" as="offset" />
          </mxGeometry>
        </mxCell>
        <mxCell id="2JFF53GtZAPgRNFm6zvI-197" style="edgeStyle=orthogonalEdgeStyle;rounded=0;orthogonalLoop=1;jettySize=auto;html=1;exitX=0.5;exitY=1;exitDx=0;exitDy=0;entryX=0.5;entryY=0;entryDx=0;entryDy=0;" edge="1" parent="1" source="2JFF53GtZAPgRNFm6zvI-199" target="2JFF53GtZAPgRNFm6zvI-201">
          <mxGeometry relative="1" as="geometry" />
        </mxCell>
        <mxCell id="2JFF53GtZAPgRNFm6zvI-198" value="Erro ao gerar &lt;br&gt;lista de formulários" style="edgeLabel;html=1;align=center;verticalAlign=middle;resizable=0;points=[];" vertex="1" connectable="0" parent="2JFF53GtZAPgRNFm6zvI-197">
          <mxGeometry x="-0.5281" y="-1" relative="1" as="geometry">
            <mxPoint x="1" y="16" as="offset" />
          </mxGeometry>
        </mxCell>
        <mxCell id="2JFF53GtZAPgRNFm6zvI-199" value="" style="rhombus;whiteSpace=wrap;html=1;" vertex="1" parent="1">
          <mxGeometry x="470" y="320" width="35" height="40" as="geometry" />
        </mxCell>
        <mxCell id="2JFF53GtZAPgRNFm6zvI-200" style="edgeStyle=orthogonalEdgeStyle;rounded=0;orthogonalLoop=1;jettySize=auto;html=1;exitX=0.5;exitY=1;exitDx=0;exitDy=0;entryX=0.5;entryY=1;entryDx=0;entryDy=0;" edge="1" parent="1" source="2JFF53GtZAPgRNFm6zvI-201" target="2JFF53GtZAPgRNFm6zvI-162">
          <mxGeometry relative="1" as="geometry">
            <Array as="points">
              <mxPoint x="488" y="950" />
              <mxPoint x="1770" y="950" />
            </Array>
          </mxGeometry>
        </mxCell>
        <mxCell id="2JFF53GtZAPgRNFm6zvI-201" value="Sistema - Exibe a mensagem: &lt;br&gt;&quot;Erro na exibição.&quot;" style="rounded=1;whiteSpace=wrap;html=1;fillColor=#CCE5FF;" vertex="1" parent="1">
          <mxGeometry x="427.5" y="460" width="120" height="60" as="geometry" />
        </mxCell>
        <mxCell id="2JFF53GtZAPgRNFm6zvI-202" style="edgeStyle=orthogonalEdgeStyle;rounded=0;orthogonalLoop=1;jettySize=auto;html=1;exitX=1;exitY=0.5;exitDx=0;exitDy=0;entryX=0;entryY=0.5;entryDx=0;entryDy=0;" edge="1" parent="1" source="2JFF53GtZAPgRNFm6zvI-204" target="2JFF53GtZAPgRNFm6zvI-181">
          <mxGeometry relative="1" as="geometry" />
        </mxCell>
        <mxCell id="2JFF53GtZAPgRNFm6zvI-203" value="Lista filtrada&lt;br&gt;gerada com sucesso" style="edgeLabel;html=1;align=center;verticalAlign=middle;resizable=0;points=[];" vertex="1" connectable="0" parent="2JFF53GtZAPgRNFm6zvI-202">
          <mxGeometry x="-0.0813" y="1" relative="1" as="geometry">
            <mxPoint as="offset" />
          </mxGeometry>
        </mxCell>
        <mxCell id="2JFF53GtZAPgRNFm6zvI-204" value="" style="rhombus;whiteSpace=wrap;html=1;" vertex="1" parent="1">
          <mxGeometry x="1100" y="690" width="35" height="40" as="geometry" />
        </mxCell>
        <mxCell id="2JFF53GtZAPgRNFm6zvI-205" style="edgeStyle=orthogonalEdgeStyle;rounded=0;orthogonalLoop=1;jettySize=auto;html=1;exitX=0.5;exitY=1;exitDx=0;exitDy=0;entryX=0.5;entryY=1;entryDx=0;entryDy=0;" edge="1" parent="1" source="2JFF53GtZAPgRNFm6zvI-206" target="2JFF53GtZAPgRNFm6zvI-162">
          <mxGeometry relative="1" as="geometry">
            <Array as="points">
              <mxPoint x="908" y="950" />
              <mxPoint x="1770" y="950" />
            </Array>
          </mxGeometry>
        </mxCell>
        <mxCell id="2JFF53GtZAPgRNFm6zvI-206" value="Sistema - Exibe a mensagem:&lt;br&gt;&quot;Nenhum Resultado.&quot;" style="rounded=1;whiteSpace=wrap;html=1;fillColor=#CCE5FF;" vertex="1" parent="1">
          <mxGeometry x="847.5" y="840" width="120" height="60" as="geometry" />
        </mxCell>
        <mxCell id="2JFF53GtZAPgRNFm6zvI-207" style="edgeStyle=orthogonalEdgeStyle;rounded=0;orthogonalLoop=1;jettySize=auto;html=1;exitX=1;exitY=0.5;exitDx=0;exitDy=0;entryX=0;entryY=0.5;entryDx=0;entryDy=0;" edge="1" parent="1" source="2JFF53GtZAPgRNFm6zvI-211" target="2JFF53GtZAPgRNFm6zvI-229">
          <mxGeometry relative="1" as="geometry">
            <mxPoint x="1705" y="340" as="targetPoint" />
          </mxGeometry>
        </mxCell>
        <mxCell id="2JFF53GtZAPgRNFm6zvI-208" value="Detalhes do formulário &lt;br&gt;carregados com sucesso" style="edgeLabel;html=1;align=center;verticalAlign=middle;resizable=0;points=[];" vertex="1" connectable="0" parent="2JFF53GtZAPgRNFm6zvI-207">
          <mxGeometry x="-0.2515" y="4" relative="1" as="geometry">
            <mxPoint x="18" y="4" as="offset" />
          </mxGeometry>
        </mxCell>
        <mxCell id="2JFF53GtZAPgRNFm6zvI-209" style="edgeStyle=orthogonalEdgeStyle;rounded=0;orthogonalLoop=1;jettySize=auto;html=1;exitX=0.5;exitY=1;exitDx=0;exitDy=0;entryX=1;entryY=0.5;entryDx=0;entryDy=0;" edge="1" parent="1" source="2JFF53GtZAPgRNFm6zvI-211" target="2JFF53GtZAPgRNFm6zvI-224">
          <mxGeometry relative="1" as="geometry" />
        </mxCell>
        <mxCell id="2JFF53GtZAPgRNFm6zvI-210" value="Erro ao buscar dados &lt;br&gt;do formulário selecionado" style="edgeLabel;html=1;align=center;verticalAlign=middle;resizable=0;points=[];" vertex="1" connectable="0" parent="2JFF53GtZAPgRNFm6zvI-209">
          <mxGeometry x="-0.8209" y="-1" relative="1" as="geometry">
            <mxPoint as="offset" />
          </mxGeometry>
        </mxCell>
        <mxCell id="2JFF53GtZAPgRNFm6zvI-211" value="" style="rhombus;whiteSpace=wrap;html=1;" vertex="1" parent="1">
          <mxGeometry x="1490" y="320" width="35" height="40" as="geometry" />
        </mxCell>
        <mxCell id="2JFF53GtZAPgRNFm6zvI-212" style="edgeStyle=orthogonalEdgeStyle;rounded=0;orthogonalLoop=1;jettySize=auto;html=1;exitX=1;exitY=0.5;exitDx=0;exitDy=0;entryX=0.5;entryY=0;entryDx=0;entryDy=0;" edge="1" parent="1" source="2JFF53GtZAPgRNFm6zvI-215" target="2JFF53GtZAPgRNFm6zvI-179">
          <mxGeometry relative="1" as="geometry" />
        </mxCell>
        <mxCell id="2JFF53GtZAPgRNFm6zvI-213" style="edgeStyle=orthogonalEdgeStyle;rounded=0;orthogonalLoop=1;jettySize=auto;html=1;exitX=1;exitY=0.75;exitDx=0;exitDy=0;entryX=0.5;entryY=0;entryDx=0;entryDy=0;" edge="1" parent="1" source="2JFF53GtZAPgRNFm6zvI-215" target="2JFF53GtZAPgRNFm6zvI-177">
          <mxGeometry relative="1" as="geometry" />
        </mxCell>
        <mxCell id="2JFF53GtZAPgRNFm6zvI-214" style="edgeStyle=orthogonalEdgeStyle;rounded=0;orthogonalLoop=1;jettySize=auto;html=1;exitX=1;exitY=0.25;exitDx=0;exitDy=0;entryX=0.5;entryY=0;entryDx=0;entryDy=0;" edge="1" parent="1" source="2JFF53GtZAPgRNFm6zvI-215" target="2JFF53GtZAPgRNFm6zvI-217">
          <mxGeometry relative="1" as="geometry" />
        </mxCell>
        <mxCell id="2JFF53GtZAPgRNFm6zvI-215" value="" style="rounded=1;whiteSpace=wrap;html=1;arcSize=40;fillColor=#000000;direction=south;" vertex="1" parent="1">
          <mxGeometry x="832.5" y="440" width="150" height="20" as="geometry" />
        </mxCell>
        <mxCell id="2JFF53GtZAPgRNFm6zvI-216" style="edgeStyle=orthogonalEdgeStyle;rounded=0;orthogonalLoop=1;jettySize=auto;html=1;exitX=0.5;exitY=1;exitDx=0;exitDy=0;entryX=0;entryY=0.25;entryDx=0;entryDy=0;" edge="1" parent="1" source="2JFF53GtZAPgRNFm6zvI-217" target="2JFF53GtZAPgRNFm6zvI-219">
          <mxGeometry relative="1" as="geometry" />
        </mxCell>
        <mxCell id="2JFF53GtZAPgRNFm6zvI-217" value="Coordenador - Informa &quot;status&quot; dos formulários para filtro" style="rounded=1;whiteSpace=wrap;html=1;fillColor=#CCE5FF;arcSize=15;" vertex="1" parent="1">
          <mxGeometry x="1000" y="510" width="130" height="60" as="geometry" />
        </mxCell>
        <mxCell id="2JFF53GtZAPgRNFm6zvI-218" style="edgeStyle=orthogonalEdgeStyle;rounded=0;orthogonalLoop=1;jettySize=auto;html=1;exitX=1;exitY=0.5;exitDx=0;exitDy=0;entryX=0.5;entryY=0;entryDx=0;entryDy=0;" edge="1" parent="1" source="2JFF53GtZAPgRNFm6zvI-219" target="2JFF53GtZAPgRNFm6zvI-187">
          <mxGeometry relative="1" as="geometry" />
        </mxCell>
        <mxCell id="2JFF53GtZAPgRNFm6zvI-219" value="" style="rounded=1;whiteSpace=wrap;html=1;arcSize=40;fillColor=#000000;direction=south;" vertex="1" parent="1">
          <mxGeometry x="832.5" y="620" width="150" height="20" as="geometry" />
        </mxCell>
        <mxCell id="2JFF53GtZAPgRNFm6zvI-220" style="edgeStyle=orthogonalEdgeStyle;rounded=0;orthogonalLoop=1;jettySize=auto;html=1;exitX=0.5;exitY=1;exitDx=0;exitDy=0;entryX=0.5;entryY=0;entryDx=0;entryDy=0;" edge="1" parent="1" target="2JFF53GtZAPgRNFm6zvI-224">
          <mxGeometry relative="1" as="geometry">
            <mxPoint x="1118" y="730" as="sourcePoint" />
          </mxGeometry>
        </mxCell>
        <mxCell id="2JFF53GtZAPgRNFm6zvI-221" value="&lt;span style=&quot;color: rgba(0, 0, 0, 0); font-family: monospace; font-size: 0px; text-align: start; background-color: rgb(251, 251, 251);&quot;&gt;%3CmxGraphModel%3E%3Croot%3E%3CmxCell%20id%3D%220%22%2F%3E%3CmxCell%20id%3D%221%22%20parent%3D%220%22%2F%3E%3CmxCell%20id%3D%222%22%20value%3D%22H%C3%A1%20formul%C3%A1rios%20nos%20%26lt%3Bbr%26gt%3Bpar%C3%A2metros%20fornecidos%22%20style%3D%22edgeLabel%3Bhtml%3D1%3Balign%3Dcenter%3BverticalAlign%3Dmiddle%3Bresizable%3D0%3Bpoints%3D%5B%5D%3B%22%20vertex%3D%221%22%20connectable%3D%220%22%20parent%3D%221%22%3E%3CmxGeometry%20x%3D%221209.5714285714284%22%20y%3D%22770%22%20as%3D%22geometry%22%2F%3E%3C%2FmxCell%3E%3C%2Froot%3E%3C%2FmxGraphModel%3E&lt;/span&gt;&lt;span style=&quot;color: rgba(0, 0, 0, 0); font-family: monospace; font-size: 0px; text-align: start; background-color: rgb(251, 251, 251);&quot;&gt;%3CmxGraphModel%3E%3Croot%3E%3CmxCell%20id%3D%220%22%2F%3E%3CmxCell%20id%3D%221%22%20parent%3D%220%22%2F%3E%3CmxCell%20id%3D%222%22%20value%3D%22H%C3%A1%20formul%C3%A1rios%20nos%20%26lt%3Bbr%26gt%3Bpar%C3%A2metros%20fornecidos%22%20style%3D%22edgeLabel%3Bhtml%3D1%3Balign%3Dcenter%3BverticalAlign%3Dmiddle%3Bresizable%3D0%3Bpoints%3D%5B%5D%3B%22%20vertex%3D%221%22%20connectable%3D%220%22%20parent%3D%221%22%3E%3CmxGeometry%20x%3D%221209.5714285714284%22%20y%3D%22770%22%20as%3D%22geometry%22%2F%3E%3C%2FmxCell%3E%3C%2Froot%3E%3C%2FmxGraphModel%3E&lt;/span&gt;" style="edgeLabel;html=1;align=center;verticalAlign=middle;resizable=0;points=[];" vertex="1" connectable="0" parent="2JFF53GtZAPgRNFm6zvI-220">
          <mxGeometry x="-0.2202" relative="1" as="geometry">
            <mxPoint as="offset" />
          </mxGeometry>
        </mxCell>
        <mxCell id="2JFF53GtZAPgRNFm6zvI-222" value="Erro ao gerar&lt;br&gt;lista de formulários" style="edgeLabel;html=1;align=center;verticalAlign=middle;resizable=0;points=[];" vertex="1" connectable="0" parent="2JFF53GtZAPgRNFm6zvI-220">
          <mxGeometry x="-0.0633" y="1" relative="1" as="geometry">
            <mxPoint as="offset" />
          </mxGeometry>
        </mxCell>
        <mxCell id="2JFF53GtZAPgRNFm6zvI-223" style="edgeStyle=orthogonalEdgeStyle;rounded=0;orthogonalLoop=1;jettySize=auto;html=1;exitX=0.5;exitY=1;exitDx=0;exitDy=0;entryX=0.5;entryY=1;entryDx=0;entryDy=0;" edge="1" parent="1" source="2JFF53GtZAPgRNFm6zvI-224" target="2JFF53GtZAPgRNFm6zvI-162">
          <mxGeometry relative="1" as="geometry">
            <mxPoint x="2120" y="710" as="targetPoint" />
            <Array as="points">
              <mxPoint x="1118" y="950" />
              <mxPoint x="1770" y="950" />
            </Array>
          </mxGeometry>
        </mxCell>
        <mxCell id="2JFF53GtZAPgRNFm6zvI-224" value="Sistema - Exibe a mensagem:&lt;br&gt;&quot;Erro na exibição.&quot;" style="rounded=1;whiteSpace=wrap;html=1;fillColor=#CCE5FF;" vertex="1" parent="1">
          <mxGeometry x="1057.5" y="840" width="120" height="60" as="geometry" />
        </mxCell>
        <mxCell id="2JFF53GtZAPgRNFm6zvI-240" style="edgeStyle=orthogonalEdgeStyle;rounded=0;orthogonalLoop=1;jettySize=auto;html=1;exitX=0.5;exitY=1;exitDx=0;exitDy=0;entryX=0.5;entryY=0;entryDx=0;entryDy=0;" edge="1" parent="1" source="2JFF53GtZAPgRNFm6zvI-229" target="2JFF53GtZAPgRNFm6zvI-162">
          <mxGeometry relative="1" as="geometry" />
        </mxCell>
        <mxCell id="2JFF53GtZAPgRNFm6zvI-229" value="Sistema - Exibe detalhes do formuláio selecionado" style="rounded=1;whiteSpace=wrap;html=1;fillColor=#CCE5FF;" vertex="1" parent="1">
          <mxGeometry x="1710" y="310" width="120" height="60" as="geometry" />
        </mxCell>
        <mxCell id="2JFF53GtZAPgRNFm6zvI-241" value="" style="edgeStyle=orthogonalEdgeStyle;rounded=0;orthogonalLoop=1;jettySize=auto;html=1;exitX=0.5;exitY=1;exitDx=0;exitDy=0;entryX=0.5;entryY=0;entryDx=0;entryDy=0;" edge="1" parent="1" source="2JFF53GtZAPgRNFm6zvI-192" target="2JFF53GtZAPgRNFm6zvI-194">
          <mxGeometry relative="1" as="geometry">
            <mxPoint x="268" y="360" as="sourcePoint" />
            <mxPoint x="130" y="90" as="targetPoint" />
          </mxGeometry>
        </mxCell>
        <mxCell id="2JFF53GtZAPgRNFm6zvI-242" value="Não possui &lt;br&gt;formulários recebidos" style="edgeLabel;html=1;align=center;verticalAlign=middle;resizable=0;points=[];" vertex="1" connectable="0" parent="2JFF53GtZAPgRNFm6zvI-241">
          <mxGeometry x="-0.9291" y="2" relative="1" as="geometry">
            <mxPoint x="-2" y="40" as="offset" />
          </mxGeometry>
        </mxCell>
      </root>
    </mxGraphModel>
  </diagram>
</mxfile>
